<?xml version="1.0" encoding="UTF-8"?>
<svg id="Layer_1" xmlns="http://www.w3.org/2000/svg" version="1.1" viewBox="0 0 32 32">
  <!-- Generator: Adobe Illustrator 30.1.0, SVG Export Plug-In . SVG Version: 2.1.1 Build 136)  -->
  <defs>
    <style>
      .st0 {
        fill: #101827;
      }
    </style>
  </defs>
  <path class="st0" d="M13.24,14.39c0-.47.13-.89.39-1.26.26-.37.58-.68.97-.94.39-.26.82-.45,1.29-.59.47-.13.92-.2,1.36-.2.29,0,.56.03.83.09.27.06.4.17.4.34,0,.1-.1.26-.31.48-.21.22-.54.41-1.02.57-.08.04-.22.11-.4.22-.18.1-.37.22-.55.35-.18.13-.35.28-.49.45-.14.16-.22.32-.22.46,0,.27.29.51.86.74.57.23,1.27.34,2.1.34.6,0,1.21-.07,1.85-.22.64-.14,1.22-.34,1.74-.6.52-.26.96-.58,1.29-.97.34-.39.51-.83.51-1.32,0-.45-.12-.83-.37-1.14-.25-.31-.57-.56-.96-.77-.39-.2-.82-.37-1.28-.49-.46-.12-.91-.21-1.34-.26-.43-.05-.81-.08-1.14-.09-.33-.01-.54-.02-.65-.02-.78,0-1.62.08-2.51.23s-1.78.39-2.65.71c-.87.32-1.71.71-2.51,1.19-.8.47-1.5,1.02-2.11,1.65-.61.63-1.09,1.32-1.45,2.1-.36.77-.54,1.62-.54,2.54s.17,1.67.51,2.37c.34.7.79,1.31,1.34,1.85.55.53,1.19.99,1.91,1.36.72.37,1.46.67,2.23.91.77.24,1.54.41,2.3.52.76.11,1.47.17,2.13.17,1.52,0,3.04-.17,4.56-.51,1.52-.34,2.99-.85,4.41-1.53.86-.41,1.46-.65,1.79-.72.33-.07.49-.06.49.05,0,.23-.12.44-.37.65-.25.21-.61.46-1.08.77-1.68,1.11-3.46,1.95-5.33,2.51-1.87.56-3.73.85-5.58.85-1.17,0-2.44-.18-3.81-.55-1.37-.37-2.63-.93-3.79-1.68-1.16-.75-2.13-1.7-2.9-2.85-.77-1.15-1.16-2.51-1.16-4.07,0-1.75.43-3.31,1.29-4.7s1.97-2.55,3.31-3.5c1.35-.94,2.84-1.67,4.48-2.17,1.64-.5,3.26-.76,4.84-.76.86,0,1.79.09,2.79.28,1,.18,1.93.49,2.79.92.86.43,1.58,1.01,2.16,1.73.57.72.86,1.61.86,2.68,0,.86-.25,1.64-.76,2.33-.5.69-1.15,1.26-1.93,1.73-.78.46-1.63.82-2.56,1.06-.92.25-1.81.37-2.65.37-.66,0-1.31-.07-1.96-.2-.65-.13-1.23-.35-1.74-.65-.51-.3-.92-.67-1.23-1.12-.31-.45-.46-1.01-.46-1.66Z"/>
  <g>
    <path class="st0" d="M1.15,29.57h.64c.32,0,.56.22.56.5s-.26.5-.56.5h-.33v.57h-.31v-1.57ZM1.46,30.29h.33c.13,0,.25-.11.25-.22,0-.13-.11-.22-.25-.22h-.33v.44Z"/>
    <path class="st0" d="M4.79,30.16v-.59h.31v1.57h-.31v-.7h-.61v.7h-.31v-1.57h.31v.59h.61Z"/>
    <path class="st0" d="M7.41,29.55c.44,0,.79.36.79.81s-.35.81-.79.81-.8-.36-.8-.8.36-.81.8-.81ZM7.41,29.84c-.27,0-.48.23-.48.52s.22.52.49.52.48-.24.48-.52-.22-.52-.48-.52Z"/>
    <path class="st0" d="M10.91,29.85h-.49v1.29h-.31v-1.29h-.49v-.28h1.3v.28Z"/>
    <path class="st0" d="M13.11,29.55c.44,0,.79.36.79.81s-.35.81-.79.81-.8-.36-.8-.8.36-.81.8-.81ZM13.11,29.84c-.27,0-.48.23-.48.52s.22.52.49.52.48-.24.48-.52-.22-.52-.48-.52Z"/>
    <path class="st0" d="M16.71,30.27v.64c-.18.17-.36.26-.58.26-.45,0-.8-.36-.8-.8s.36-.81.8-.81c.19,0,.37.07.49.17l-.15.26c-.08-.09-.21-.15-.35-.15-.26,0-.48.23-.48.51s.22.52.48.52c.11,0,.22-.04.28-.09v-.24h-.3v-.28h.61Z"/>
    <path class="st0" d="M18.61,30.57v.57h-.31v-1.57h.63c.33,0,.57.21.57.5,0,.23-.18.42-.42.48h-.04s.49.6.49.6h-.38l-.48-.57h-.07ZM18.93,29.85h-.32v.44h.33c.14,0,.26-.1.26-.22s-.1-.22-.26-.22Z"/>
    <path class="st0" d="M21.85,29.57l.62,1.57h-.33l-.15-.37h-.57l-.15.37h-.33l.62-1.57h.29ZM21.7,30.04l-.18.46h.36l-.18-.46Z"/>
    <path class="st0" d="M23.95,29.57h.64c.32,0,.56.22.56.5s-.26.5-.56.5h-.33v.57h-.31v-1.57ZM24.26,30.29h.33c.13,0,.25-.11.25-.22,0-.13-.11-.22-.25-.22h-.33v.44Z"/>
    <path class="st0" d="M27.59,30.16v-.59h.31v1.57h-.31v-.7h-.61v.7h-.31v-1.57h.31v.59h.61Z"/>
    <path class="st0" d="M29.39,29.57h.36l.37.59.37-.59h.36l-.57.91v.66s-.31,0-.31,0v-.66s-.58-.91-.58-.91Z"/>
  </g>
  <g>
    <path class="st0" d="M31.83,9.44c-.04-.44-.08-.89-.11-1.33l-.05-.66c-.04-.59-.38-1.17-.88-1.48-.34-.22-.73-.29-1.12-.28-1.29-.12-2.58-.22-3.87-.35l-.97-.1c-.42-.03-.83-.13-1.18-.37-.38-.25-.67-.62-.82-1.06-.13-.3-.09-.66-.18-.96-.12-.35-.48-.6-.84-.58-.64.01-1.29.03-1.94.03-1.29.02-2.59.02-3.88.02-1.29,0-2.59,0-3.88-.02-.65,0-1.29-.01-1.94-.03-.36-.02-.72.22-.84.58-.09.31-.04.65-.17.95-.14.44-.44.81-.81,1.07-.58.43-1.47.39-2.15.48-1.29.14-2.58.23-3.87.35-.79-.06-1.56.41-1.85,1.16-.16.34-.15.89-.19,1.25-.04.44-.07.89-.12,1.33-.07-.64-.11-1.35-.16-1.99-.12-1.36,1.09-2.46,2.22-2.49,1.28-.23,2.55-.47,3.83-.68l.96-.16c.23-.03.45-.08.63-.23.48-.35.28-.94.44-1.43.26-.9,1.15-1.56,2.09-1.57,1.94-.04,3.88-.05,5.82-.05,1.29,0,2.59,0,3.88.02,1.07.08,2.35-.21,3.25.48.56.41.89,1.11.87,1.79-.02.44.32.86.76.94,0,0,.24.04.24.04,1.51.25,3.42.59,4.73.85,1.03.04,1.96.79,2.2,1.77.14.41.03.96.02,1.38-.04.44-.07.89-.11,1.33h0Z"/>
    <path class="st0" d="M5.74,3.59h-1.16c-.41,0-.75-.33-.75-.75s.33-.75.75-.75h1.16c.41,0,.75.33.75.75s-.33.75-.75.75Z"/>
  </g>
</svg>