<?xml version="1.0" encoding="UTF-8"?>
<svg id="Layer_1" xmlns="http://www.w3.org/2000/svg" version="1.1" viewBox="0 0 163.94 64">
  <!-- Generator: Adobe Illustrator 30.1.0, SVG Export Plug-In . SVG Version: 2.1.1 Build 136)  -->
  <defs>
    <style>
      .st0 {
        fill: #101827;
      }
    </style>
  </defs>
  <g>
    <g>
      <path class="st0" d="M24.22,41.58h1.81c.89,0,1.58.61,1.58,1.4s-.72,1.4-1.58,1.4h-.93v1.61h-.88v-4.41ZM25.1,43.6h.93c.38,0,.71-.3.71-.62,0-.35-.3-.62-.71-.62h-.93v1.25Z"/>
      <path class="st0" d="M34.45,43.23v-1.66h.88v4.41h-.88v-1.98h-1.71v1.98h-.88v-4.41h.88v1.66h1.71Z"/>
      <path class="st0" d="M41.81,41.53c1.24,0,2.23,1.01,2.23,2.26s-.99,2.26-2.23,2.26-2.24-1.01-2.24-2.25,1.01-2.27,2.24-2.27ZM41.81,42.32c-.75,0-1.36.65-1.36,1.46s.63,1.46,1.37,1.46,1.35-.66,1.35-1.46-.6-1.46-1.36-1.46Z"/>
      <path class="st0" d="M51.62,42.36h-1.38v3.63h-.88v-3.63h-1.38v-.78h3.64v.78Z"/>
      <path class="st0" d="M57.8,41.53c1.24,0,2.23,1.01,2.23,2.26s-.99,2.26-2.23,2.26-2.24-1.01-2.24-2.25,1.01-2.27,2.24-2.27ZM57.79,42.32c-.75,0-1.36.65-1.36,1.46s.63,1.46,1.37,1.46,1.35-.66,1.35-1.46-.6-1.46-1.36-1.46Z"/>
      <path class="st0" d="M67.91,43.53v1.79c-.5.48-1.02.73-1.62.73-1.25,0-2.25-1.01-2.25-2.25s1.01-2.27,2.24-2.27c.53,0,1.03.18,1.38.48l-.42.73c-.23-.25-.59-.42-.97-.42-.72,0-1.35.64-1.35,1.44s.62,1.47,1.33,1.47c.3,0,.62-.11.79-.25v-.69h-.85v-.77h1.72Z"/>
      <path class="st0" d="M73.24,44.38v1.61h-.88v-4.41h1.78c.93,0,1.61.6,1.61,1.4,0,.65-.52,1.18-1.17,1.33l-.11.02,1.37,1.65h-1.06l-1.33-1.61h-.21ZM74.14,42.36h-.9v1.24h.91c.4,0,.72-.27.72-.62s-.28-.62-.74-.62Z"/>
      <path class="st0" d="M82.32,41.58l1.74,4.41h-.93l-.41-1.04h-1.61l-.41,1.04h-.93l1.74-4.41h.81ZM81.92,42.9l-.51,1.3h1.02l-.51-1.3Z"/>
      <path class="st0" d="M88.21,41.58h1.81c.89,0,1.58.61,1.58,1.4s-.72,1.4-1.58,1.4h-.93v1.61h-.88v-4.41ZM89.08,43.6h.93c.38,0,.71-.3.71-.62,0-.35-.3-.62-.71-.62h-.93v1.25Z"/>
      <path class="st0" d="M98.43,43.23v-1.66h.88v4.41h-.88v-1.98h-1.71v1.98h-.88v-4.41h.88v1.66h1.71Z"/>
      <path class="st0" d="M103.49,41.58h1.01l1.05,1.65,1.05-1.65h1l-1.61,2.56v1.84s-.87,0-.87,0v-1.84s-1.62-2.56-1.62-2.56Z"/>
    </g>
    <g>
      <path class="st0" d="M35.79,21.66c0-.68.19-1.29.56-1.83.37-.53.84-.99,1.4-1.36.56-.37,1.19-.65,1.87-.85.68-.19,1.34-.29,1.96-.29.42,0,.82.04,1.2.13.39.09.58.25.58.49,0,.15-.15.38-.45.69-.3.31-.79.59-1.47.82-.12.06-.31.16-.58.31-.27.15-.53.32-.8.51-.27.19-.51.41-.71.65-.21.24-.31.46-.31.67,0,.39.42.74,1.25,1.07.83.33,1.84.49,3.03.49.86,0,1.75-.1,2.67-.31.92-.21,1.76-.5,2.52-.87.76-.37,1.38-.84,1.87-1.4.49-.56.74-1.2.74-1.92,0-.65-.18-1.2-.53-1.65-.36-.45-.82-.82-1.38-1.11-.56-.3-1.18-.53-1.85-.71-.67-.18-1.31-.3-1.94-.38-.62-.07-1.17-.12-1.65-.13-.48-.01-.79-.02-.94-.02-1.13,0-2.34.11-3.63.33s-2.57.56-3.83,1.02c-1.26.46-2.47,1.03-3.63,1.72-1.16.68-2.18,1.48-3.05,2.38-.88.91-1.57,1.92-2.09,3.03-.52,1.11-.78,2.34-.78,3.68s.24,2.42.73,3.43c.49,1.01,1.14,1.9,1.94,2.67.8.77,1.72,1.43,2.76,1.96,1.04.53,2.12.97,3.23,1.31,1.11.34,2.22.59,3.32.76,1.1.16,2.12.25,3.07.25,2.2,0,4.4-.25,6.59-.74,2.2-.49,4.32-1.23,6.37-2.21,1.25-.59,2.11-.94,2.58-1.05.47-.1.71-.08.71.07,0,.33-.18.64-.53.94-.36.3-.88.67-1.56,1.11-2.44,1.6-5.01,2.81-7.71,3.63-2.7.82-5.39,1.23-8.06,1.23-1.69,0-3.53-.27-5.5-.8-1.98-.53-3.8-1.34-5.48-2.43-1.68-1.08-3.07-2.46-4.19-4.12-1.11-1.66-1.67-3.62-1.67-5.88,0-2.52.62-4.79,1.87-6.79s2.84-3.69,4.79-5.06c1.95-1.37,4.11-2.41,6.48-3.14,2.38-.73,4.71-1.09,7-1.09,1.25,0,2.59.13,4.03.4,1.44.27,2.78.71,4.03,1.34,1.25.62,2.29,1.46,3.12,2.49.83,1.04,1.25,2.33,1.25,3.88,0,1.25-.36,2.37-1.09,3.36-.73,1-1.66,1.83-2.78,2.5-1.13.67-2.36,1.18-3.7,1.54-1.34.36-2.61.53-3.83.53-.95,0-1.89-.1-2.83-.29-.94-.19-1.78-.5-2.52-.94-.74-.43-1.34-.97-1.78-1.63-.45-.65-.67-1.45-.67-2.41Z"/>
      <path class="st0" d="M75.94,31.49c.08-.15.18-.22.32-.21.14.01.25.11.32.29.08.18.1.43.08.76-.03.33-.15.74-.38,1.22-.28.59-.64,1.16-1.09,1.72-.45.56-.94,1.04-1.49,1.45-.55.41-1.14.72-1.78.94-.64.22-1.3.29-1.99.21-1.12-.13-1.94-.53-2.44-1.2-.51-.67-.83-1.56-.95-2.65-.05-.64-.04-1.3.02-2.01.06-.7.18-1.41.36-2.12.1-.46.22-.99.36-1.6s.31-1.25.52-1.91c.05-.61-.06-.9-.32-.88-.27.03-.62.27-1.07.74-.45.47-.95,1.13-1.53,1.97-.57.84-1.13,1.77-1.68,2.79-.55,1.02-1.07,2.09-1.57,3.21-.5,1.12-.89,2.19-1.16,3.21-.03.13-.05.22-.08.29-.03.06-.1.11-.23.13-.38.08-.8.06-1.24-.04s-.85-.27-1.22-.52c-.37-.24-.65-.55-.84-.94-.19-.38-.23-.83-.13-1.34.81-3.59,1.66-7.15,2.54-10.67.88-3.53,1.71-7.1,2.5-10.71.05-.15.14-.23.27-.23.51-.05,1-.06,1.47-.02.47.04.87.15,1.2.34.33.19.57.48.73.86.15.38.17.88.04,1.49-.43,2.01-.9,4.02-1.39,6.02-.5,2-.99,4-1.47,6.02.43-.99.95-1.9,1.55-2.73.6-.83,1.38-1.51,2.35-2.04.33-.18.76-.32,1.28-.42.52-.1,1.04-.13,1.57-.1.52.04,1.01.16,1.47.36.46.2.8.52,1.03.95.28.51.4,1.11.36,1.79-.04.69-.16,1.36-.36,2.02-.13.36-.24.71-.32,1.07-.09.36-.19.71-.29,1.07-.03.15-.05.31-.08.46-.03.15-.06.32-.11.5-.1.43-.17.84-.21,1.22s-.06.74-.06,1.07c.03.89.3,1.48.82,1.76.52.28,1.14.17,1.85-.34.31-.2.59-.46.86-.76.27-.31.5-.61.71-.92.2-.31.38-.6.53-.9.15-.29.28-.52.38-.67Z"/>
      <path class="st0" d="M109.35,31.41c.08-.15.18-.22.32-.21.14.01.25.11.32.29.08.18.1.43.08.76-.03.33-.15.75-.38,1.26-.28.61-.64,1.19-1.09,1.74-.45.55-.95,1.03-1.51,1.43-.56.41-1.17.73-1.81.95-.65.23-1.32.31-2.01.23-.87-.1-1.53-.38-2-.82-.47-.45-.81-1.02-1.01-1.74-.59.79-1.28,1.41-2.08,1.85-.8.45-1.75.67-2.85.67s-2.06-.31-2.83-.94c-.76-.62-1.32-1.44-1.68-2.46-.48-1.32-.64-2.69-.48-4.11.17-1.41.59-2.7,1.28-3.86.69-1.16,1.6-2.09,2.75-2.79,1.15-.7,2.46-1,3.93-.9.64.05,1.23.24,1.78.55.55.32,1.02.81,1.43,1.47.08-.31.15-.6.23-.88.08-.28.14-.56.19-.84.02-.13.11-.22.27-.27.51-.05,1.01-.05,1.49,0,.48.05.9.17,1.24.36.34.19.59.48.74.86.15.38.17.88.04,1.49-.1.51-.25,1.11-.44,1.79-.19.69-.37,1.39-.53,2.1-.17.71-.31,1.41-.44,2.1-.13.69-.18,1.27-.15,1.76.03.89.29,1.48.8,1.76.51.28,1.13.17,1.87-.34.64-.43,1.17-1,1.59-1.7.42-.7.73-1.23.94-1.58ZM100,32.71c.03-.38.06-.77.11-1.17.05-.39.11-.81.19-1.24l-.69-.11c-.53-.15-.65-.47-.34-.95.2-.33.37-.73.5-1.18.13-.46.18-.9.17-1.32-.01-.42-.1-.79-.27-1.11-.17-.32-.45-.52-.86-.59-.46-.08-.9.02-1.34.29-.43.27-.83.65-1.18,1.15-.36.5-.67,1.07-.96,1.72s-.49,1.31-.63,1.99c-.14.67-.21,1.33-.21,1.97s.1,1.18.31,1.64c.23.56.58.94,1.05,1.15.47.2.96.25,1.47.13.51-.11,1.01-.37,1.51-.76.5-.39.88-.92,1.16-1.58Z"/>
      <path class="st0" d="M114.25,22.54c.26,0,.47.05.63.16.16.11.25.23.25.37,0,.12-.07.26-.21.42-.19.21-.52.71-1,1.49-.48.78-.96,1.67-1.45,2.68-.49,1-.93,2.04-1.31,3.1-.39,1.06-.58,1.98-.58,2.75,0,.44.18.66.53.66.23,0,.51-.09.82-.26s.66-.4,1.03-.66c.37-.27.75-.58,1.14-.93.38-.35.75-.7,1.1-1.05.21-.65.42-1.33.63-2.03.21-.7.43-1.38.65-2.05.22-.66.46-1.28.7-1.85.24-.57.52-1.07.82-1.49.14-.19.39-.36.75-.52.36-.16.76-.3,1.19-.42.43-.12.87-.2,1.31-.26.44-.06.81-.09,1.08-.09.26,0,.48.06.67.17.14.07.21.19.21.35,0,.05-.02.1-.07.16-.05.06-.09.15-.14.26-.33.68-.69,1.57-1.1,2.69-.41,1.12-.83,2.38-1.28,3.78-.21.68-.42,1.38-.63,2.12-.21.73-.43,1.49-.67,2.26.3-.21.61-.4.91-.56.3-.16.62-.37.95-.63.3-.23.62-.51.96-.84.34-.33.66-.64.98-.94.31-.3.61-.56.87-.77.27-.21.48-.31.65-.31.12,0,.23.04.33.12.1.08.16.22.16.4,0,.54-.12,1.03-.37,1.49s-.57.9-.98,1.35c-.41.44-.87.9-1.4,1.38-.52.48-1.08,1-1.66,1.56-.42.42-.78.76-1.07,1.01-.29.26-.54.47-.75.65-.21.18-.39.32-.53.44-.14.12-.28.25-.42.38-.4,1.33-.8,2.75-1.22,4.27-.42,1.52-.85,3.04-1.29,4.57-.44,1.53-.92,3.03-1.42,4.51-.5,1.48-1.03,2.86-1.59,4.15-.56,1.28-1.15,2.43-1.78,3.43-.63,1-1.29,1.8-1.99,2.38-.47.37-1.02.74-1.66,1.1-.64.36-1.3.54-1.98.54-.79-.05-1.41-.36-1.85-.94-.44-.58-.76-1.22-.94-1.92-.4-1.33-.43-2.75-.09-4.27.34-1.52.91-3.06,1.71-4.64.8-1.57,1.78-3.14,2.92-4.71,1.14-1.56,2.32-3.06,3.53-4.48.44-.54.88-1.04,1.31-1.52.43-.48.86-.95,1.28-1.42.26-.93.49-1.82.7-2.66.21-.84.41-1.63.6-2.38-1.03.96-2.02,1.68-2.99,2.17-.97.49-1.93.73-2.89.73-.89,0-1.48-.24-1.78-.72-.3-.48-.46-1.12-.46-1.94s.1-1.75.3-2.8c.2-1.05.46-2.1.79-3.17.33-1.06.71-2.08,1.14-3.06.43-.98.88-1.8,1.35-2.45.14-.19.4-.36.79-.52.38-.16.82-.3,1.29-.42.48-.12.95-.2,1.42-.26.47-.06.84-.09,1.12-.09ZM105.43,60.57c.35-.02.75-.44,1.21-1.24.46-.8.93-1.87,1.43-3.2.5-1.33,1.02-2.85,1.56-4.55.54-1.7,1.06-3.46,1.57-5.28-.89,1.1-1.71,2.22-2.47,3.38-.76,1.15-1.42,2.29-1.98,3.41-.56,1.12-1,2.21-1.33,3.27-.33,1.06-.49,2.02-.49,2.89,0,.61.05.97.16,1.1.11.13.22.2.33.23Z"/>
      <path class="st0" d="M142.3,31.41c.08-.15.18-.22.32-.21.14.01.25.11.32.29.08.18.1.43.08.76-.03.33-.15.75-.38,1.26-.28.61-.64,1.19-1.09,1.74-.45.55-.95,1.03-1.51,1.43-.56.41-1.17.73-1.81.95-.65.23-1.32.31-2.01.23-.87-.1-1.53-.38-2-.82-.47-.45-.81-1.02-1.01-1.74-.59.79-1.28,1.41-2.08,1.85-.8.45-1.75.67-2.85.67s-2.06-.31-2.83-.94c-.76-.62-1.32-1.44-1.68-2.46-.48-1.32-.64-2.69-.48-4.11.17-1.41.59-2.7,1.28-3.86.69-1.16,1.6-2.09,2.75-2.79,1.15-.7,2.46-1,3.93-.9.64.05,1.23.24,1.78.55.55.32,1.02.81,1.43,1.47.08-.31.15-.6.23-.88.08-.28.14-.56.19-.84.02-.13.11-.22.27-.27.51-.05,1.01-.05,1.49,0,.48.05.9.17,1.24.36.34.19.59.48.74.86.15.38.17.88.04,1.49-.1.51-.25,1.11-.44,1.79-.19.69-.37,1.39-.53,2.1-.17.71-.31,1.41-.44,2.1-.13.69-.18,1.27-.15,1.76.03.89.29,1.48.8,1.76.51.28,1.13.17,1.87-.34.64-.43,1.17-1,1.59-1.7.42-.7.73-1.23.94-1.58ZM132.94,32.71c.03-.38.06-.77.11-1.17.05-.39.11-.81.19-1.24l-.69-.11c-.53-.15-.65-.47-.34-.95.2-.33.37-.73.5-1.18.13-.46.18-.9.17-1.32-.01-.42-.1-.79-.27-1.11-.17-.32-.45-.52-.86-.59-.46-.08-.9.02-1.34.29-.43.27-.83.65-1.18,1.15-.36.5-.67,1.07-.96,1.72s-.49,1.31-.63,1.99c-.14.67-.21,1.33-.21,1.97s.1,1.18.31,1.64c.23.56.58.94,1.05,1.15.47.2.96.25,1.47.13.51-.11,1.01-.37,1.51-.76.5-.39.88-.92,1.16-1.58Z"/>
      <path class="st0" d="M80.03,13.35c.1,0,.19,0,.28.02.03,0,.06,0,.09,0-.03,0-.06,0-.09,0-.09,0-.19-.01-.28-.01Z"/>
      <path class="st0" d="M92.74,31.49c.08-.15.18-.22.32-.21.14.01.25.11.32.29.08.18.1.43.08.76-.03.33-.15.74-.38,1.22-.28.59-.64,1.16-1.09,1.72-.45.56-.94,1.04-1.49,1.45-.55.41-1.14.72-1.78.94-.64.22-1.3.29-1.99.21-1.12-.13-1.94-.53-2.44-1.2-.51-.67-.83-1.56-.95-2.65-.05-.64-.04-1.3.02-2.01.06-.7.18-1.41.36-2.12.1-.46.22-.99.36-1.6s.31-1.25.52-1.91c.05-.61-.06-.9-.32-.88-.27.03-.62.27-1.07.74-.45.47-.95,1.13-1.53,1.97-.57.84-1.13,1.77-1.68,2.79-.55,1.02-1.07,2.09-1.57,3.21-.5,1.12-.89,2.19-1.16,3.21-.03.13-.05.22-.08.29-.03.06-.1.11-.23.13-.38.08-.8.06-1.24-.04s-.85-.27-1.22-.52c-.37-.24-.65-.55-.84-.94-.19-.38-.23-.83-.13-1.34.81-3.59,1.66-7.15,2.54-10.67.88-3.53,1.71-7.1,2.5-10.71.05-.15.14-.23.27-.23.51-.05,1-.06,1.47-.02.47.04.87.15,1.2.34.33.19.57.48.73.86.15.38.17.88.04,1.49-.43,2.01-.9,4.02-1.39,6.02-.5,2-.99,4-1.47,6.02.43-.99.95-1.9,1.55-2.73.6-.83,1.38-1.51,2.35-2.04.33-.18.76-.32,1.28-.42.52-.1,1.04-.13,1.57-.1.52.04,1.01.16,1.47.36.46.2.8.52,1.03.95.28.51.4,1.11.36,1.79-.04.69-.16,1.36-.36,2.02-.13.36-.24.71-.32,1.07-.09.36-.19.71-.29,1.07-.03.15-.05.31-.08.46-.03.15-.06.32-.11.5-.1.43-.17.84-.21,1.22s-.06.74-.06,1.07c.03.89.3,1.48.82,1.76.52.28,1.14.17,1.85-.34.31-.2.59-.46.86-.76.27-.31.5-.61.71-.92.2-.31.38-.6.53-.9.15-.29.28-.52.38-.67Z"/>
    </g>
  </g>
  <g>
    <path class="st0" d="M66.93,12.44c-.06-.64-.11-1.28-.17-1.92l-.07-.96c-.06-.86-.55-1.69-1.27-2.13-.49-.33-1.06-.42-1.61-.4-1.87-.17-3.73-.31-5.6-.51l-1.4-.14c-.6-.04-1.21-.19-1.71-.54-.54-.36-.97-.9-1.19-1.53-.19-.43-.13-.95-.25-1.39-.18-.51-.7-.86-1.22-.84-.93.02-1.87.04-2.8.04-1.87.02-3.74.03-5.61.03-1.87,0-3.74,0-5.61-.03-.94,0-1.87-.02-2.81-.04-.52-.03-1.04.32-1.22.83-.13.44-.06.94-.25,1.38-.21.63-.64,1.17-1.17,1.54-.83.63-2.13.56-3.11.69-1.86.2-3.73.33-5.6.5-1.14-.09-2.25.59-2.68,1.68-.23.49-.21,1.28-.27,1.81-.06.64-.1,1.28-.17,1.92-.1-.92-.16-1.95-.24-2.88-.18-1.97,1.58-3.55,3.21-3.6,1.84-.33,3.68-.68,5.53-.98l1.38-.23c.34-.05.65-.11.91-.33.69-.5.4-1.37.64-2.07.38-1.31,1.66-2.26,3.02-2.26,2.81-.06,5.61-.07,8.42-.07,1.87,0,3.74,0,5.61.03,1.54.11,3.39-.31,4.69.69.8.59,1.29,1.61,1.26,2.59-.02.64.46,1.24,1.1,1.36,0,0,.34.06.34.06,2.18.36,4.94.85,6.84,1.22,1.48.06,2.84,1.14,3.19,2.56.2.59.04,1.39.02,2-.06.64-.1,1.28-.17,1.92h0Z"/>
    <path class="st0" d="M29.2,3.99h-1.67c-.6,0-1.08-.48-1.08-1.08s.48-1.08,1.08-1.08h1.67c.6,0,1.08.48,1.08,1.08s-.48,1.08-1.08,1.08Z"/>
  </g>
</svg>